<mxfile host="app.diagrams.net" modified="2021-08-23T18:27:17.494Z" agent="5.0 (Macintosh)" etag="T8yB_8XD2c1WURkRW5UT" version="14.9.8" type="github">
  <diagram id="G8l90t1o2bZnV9wiOUF2" name="Page-1">
    <mxGraphModel dx="4915" dy="438" grid="1" gridSize="10" guides="1" tooltips="1" connect="1" arrows="1" fold="1" page="1" pageScale="1" pageWidth="850" pageHeight="1100" math="0" shadow="0">
      <root>
        <mxCell id="0" />
        <mxCell id="1" parent="0" />
        <mxCell id="UrcYGBR2MilL74NsPiot-1" style="edgeStyle=orthogonalEdgeStyle;rounded=0;orthogonalLoop=1;jettySize=auto;html=1;entryX=0;entryY=0.5;entryDx=0;entryDy=0;fillColor=#cce5ff;strokeColor=#36393d;" parent="1" source="UrcYGBR2MilL74NsPiot-2" target="UrcYGBR2MilL74NsPiot-68" edge="1">
          <mxGeometry relative="1" as="geometry" />
        </mxCell>
        <mxCell id="UrcYGBR2MilL74NsPiot-2" value="&lt;div&gt;Pommel Horse:&lt;/div&gt;&lt;div&gt;Mushroom Trainer&lt;/div&gt;" style="ellipse;whiteSpace=wrap;html=1;fillColor=#cce5ff;strokeColor=#36393d;" parent="1" vertex="1">
          <mxGeometry x="-2310" y="2180" width="120" height="80" as="geometry" />
        </mxCell>
        <mxCell id="UrcYGBR2MilL74NsPiot-3" style="edgeStyle=orthogonalEdgeStyle;rounded=0;orthogonalLoop=1;jettySize=auto;html=1;entryX=0;entryY=0.5;entryDx=0;entryDy=0;fillColor=#cce5ff;strokeColor=#36393d;" parent="1" source="UrcYGBR2MilL74NsPiot-4" target="UrcYGBR2MilL74NsPiot-74" edge="1">
          <mxGeometry relative="1" as="geometry" />
        </mxCell>
        <mxCell id="UrcYGBR2MilL74NsPiot-4" value="Circle" style="whiteSpace=wrap;html=1;fillColor=#cce5ff;strokeColor=#36393d;" parent="1" vertex="1">
          <mxGeometry x="-1620" y="2190" width="120" height="60" as="geometry" />
        </mxCell>
        <mxCell id="UrcYGBR2MilL74NsPiot-5" value="" style="edgeStyle=orthogonalEdgeStyle;rounded=0;orthogonalLoop=1;jettySize=auto;html=1;fillColor=#cce5ff;strokeColor=#36393d;" parent="1" source="UrcYGBR2MilL74NsPiot-47" target="UrcYGBR2MilL74NsPiot-10" edge="1">
          <mxGeometry relative="1" as="geometry" />
        </mxCell>
        <mxCell id="UrcYGBR2MilL74NsPiot-6" value="1/4 Spindle" style="whiteSpace=wrap;html=1;fillColor=#cce5ff;strokeColor=#36393d;" parent="1" vertex="1">
          <mxGeometry x="-680" y="2190" width="120" height="60" as="geometry" />
        </mxCell>
        <mxCell id="UrcYGBR2MilL74NsPiot-7" value="" style="edgeStyle=orthogonalEdgeStyle;rounded=0;orthogonalLoop=1;jettySize=auto;html=1;fillColor=#cce5ff;strokeColor=#36393d;" parent="1" source="UrcYGBR2MilL74NsPiot-47" target="UrcYGBR2MilL74NsPiot-10" edge="1">
          <mxGeometry relative="1" as="geometry" />
        </mxCell>
        <mxCell id="UrcYGBR2MilL74NsPiot-8" value="" style="edgeStyle=orthogonalEdgeStyle;rounded=0;orthogonalLoop=1;jettySize=auto;html=1;fillColor=#cce5ff;strokeColor=#36393d;" parent="1" source="UrcYGBR2MilL74NsPiot-10" target="UrcYGBR2MilL74NsPiot-35" edge="1">
          <mxGeometry relative="1" as="geometry" />
        </mxCell>
        <mxCell id="UrcYGBR2MilL74NsPiot-9" style="edgeStyle=orthogonalEdgeStyle;rounded=0;orthogonalLoop=1;jettySize=auto;html=1;fillColor=#cce5ff;strokeColor=#36393d;" parent="1" source="UrcYGBR2MilL74NsPiot-10" target="UrcYGBR2MilL74NsPiot-98" edge="1">
          <mxGeometry relative="1" as="geometry" />
        </mxCell>
        <mxCell id="UrcYGBR2MilL74NsPiot-10" value="1/1 Spindle" style="whiteSpace=wrap;html=1;fillColor=#cce5ff;strokeColor=#36393d;" parent="1" vertex="1">
          <mxGeometry x="1080" y="2190" width="120" height="60" as="geometry" />
        </mxCell>
        <mxCell id="UrcYGBR2MilL74NsPiot-11" value="" style="edgeStyle=orthogonalEdgeStyle;rounded=0;orthogonalLoop=1;jettySize=auto;html=1;fillColor=#cce5ff;strokeColor=#36393d;" parent="1" source="UrcYGBR2MilL74NsPiot-12" target="UrcYGBR2MilL74NsPiot-15" edge="1">
          <mxGeometry relative="1" as="geometry" />
        </mxCell>
        <mxCell id="UrcYGBR2MilL74NsPiot-12" value="1/4 Czech" style="whiteSpace=wrap;html=1;fillColor=#cce5ff;strokeColor=#36393d;" parent="1" vertex="1">
          <mxGeometry x="-680" y="1960" width="120" height="60" as="geometry" />
        </mxCell>
        <mxCell id="UrcYGBR2MilL74NsPiot-13" style="edgeStyle=orthogonalEdgeStyle;rounded=0;orthogonalLoop=1;jettySize=auto;html=1;entryX=0;entryY=0.5;entryDx=0;entryDy=0;fillColor=#cce5ff;strokeColor=#36393d;" parent="1" source="UrcYGBR2MilL74NsPiot-15" target="UrcYGBR2MilL74NsPiot-50" edge="1">
          <mxGeometry relative="1" as="geometry" />
        </mxCell>
        <mxCell id="UrcYGBR2MilL74NsPiot-14" value="" style="edgeStyle=orthogonalEdgeStyle;rounded=0;orthogonalLoop=1;jettySize=auto;html=1;fillColor=#cce5ff;strokeColor=#36393d;" parent="1" source="UrcYGBR2MilL74NsPiot-15" target="UrcYGBR2MilL74NsPiot-17" edge="1">
          <mxGeometry relative="1" as="geometry" />
        </mxCell>
        <mxCell id="UrcYGBR2MilL74NsPiot-15" value="1/4 Khere" style="whiteSpace=wrap;html=1;fillColor=#cce5ff;strokeColor=#36393d;" parent="1" vertex="1">
          <mxGeometry x="-520" y="1960" width="120" height="60" as="geometry" />
        </mxCell>
        <mxCell id="UrcYGBR2MilL74NsPiot-16" value="Czechkhere" style="whiteSpace=wrap;html=1;fillColor=#cce5ff;strokeColor=#36393d;" parent="1" vertex="1">
          <mxGeometry x="270" y="1960" width="120" height="60" as="geometry" />
        </mxCell>
        <mxCell id="UrcYGBR2MilL74NsPiot-17" value="Wende/Schwabenflank Dismount" style="whiteSpace=wrap;html=1;fillColor=#cce5ff;strokeColor=#36393d;" parent="1" vertex="1">
          <mxGeometry x="-520" y="1860" width="120" height="60" as="geometry" />
        </mxCell>
        <mxCell id="UrcYGBR2MilL74NsPiot-18" value="" style="edgeStyle=orthogonalEdgeStyle;rounded=0;orthogonalLoop=1;jettySize=auto;html=1;fillColor=#cce5ff;strokeColor=#36393d;" parent="1" source="UrcYGBR2MilL74NsPiot-19" target="UrcYGBR2MilL74NsPiot-35" edge="1">
          <mxGeometry relative="1" as="geometry" />
        </mxCell>
        <mxCell id="UrcYGBR2MilL74NsPiot-19" value="Flare" style="whiteSpace=wrap;html=1;fillColor=#cce5ff;strokeColor=#36393d;" parent="1" vertex="1">
          <mxGeometry x="-680" y="2330" width="120" height="60" as="geometry" />
        </mxCell>
        <mxCell id="UrcYGBR2MilL74NsPiot-20" value="" style="edgeStyle=orthogonalEdgeStyle;rounded=0;orthogonalLoop=1;jettySize=auto;html=1;fillColor=#cce5ff;strokeColor=#36393d;" parent="1" source="UrcYGBR2MilL74NsPiot-22" target="UrcYGBR2MilL74NsPiot-24" edge="1">
          <mxGeometry relative="1" as="geometry" />
        </mxCell>
        <mxCell id="UrcYGBR2MilL74NsPiot-21" value="" style="edgeStyle=orthogonalEdgeStyle;rounded=0;orthogonalLoop=1;jettySize=auto;html=1;fillColor=#cce5ff;strokeColor=#36393d;" parent="1" source="UrcYGBR2MilL74NsPiot-22" target="UrcYGBR2MilL74NsPiot-66" edge="1">
          <mxGeometry relative="1" as="geometry" />
        </mxCell>
        <mxCell id="UrcYGBR2MilL74NsPiot-22" value="Russian 180" style="whiteSpace=wrap;html=1;fillColor=#cce5ff;strokeColor=#36393d;" parent="1" vertex="1">
          <mxGeometry x="-680" y="2450" width="120" height="60" as="geometry" />
        </mxCell>
        <mxCell id="UrcYGBR2MilL74NsPiot-23" value="" style="edgeStyle=orthogonalEdgeStyle;rounded=0;orthogonalLoop=1;jettySize=auto;html=1;fillColor=#cce5ff;strokeColor=#36393d;" parent="1" source="UrcYGBR2MilL74NsPiot-24" target="UrcYGBR2MilL74NsPiot-32" edge="1">
          <mxGeometry relative="1" as="geometry" />
        </mxCell>
        <mxCell id="UrcYGBR2MilL74NsPiot-24" value="Russian 360" style="whiteSpace=wrap;html=1;fillColor=#cce5ff;strokeColor=#36393d;" parent="1" vertex="1">
          <mxGeometry x="100" y="2450" width="120" height="60" as="geometry" />
        </mxCell>
        <mxCell id="UrcYGBR2MilL74NsPiot-25" value="" style="edgeStyle=orthogonalEdgeStyle;rounded=0;orthogonalLoop=1;jettySize=auto;html=1;fillColor=#cce5ff;strokeColor=#36393d;" parent="1" source="UrcYGBR2MilL74NsPiot-26" target="UrcYGBR2MilL74NsPiot-88" edge="1">
          <mxGeometry relative="1" as="geometry" />
        </mxCell>
        <mxCell id="UrcYGBR2MilL74NsPiot-26" value="Single Handle Circle" style="whiteSpace=wrap;html=1;fillColor=#cce5ff;strokeColor=#36393d;" parent="1" vertex="1">
          <mxGeometry x="-680" y="2700" width="120" height="60" as="geometry" />
        </mxCell>
        <mxCell id="UrcYGBR2MilL74NsPiot-27" style="edgeStyle=orthogonalEdgeStyle;rounded=0;orthogonalLoop=1;jettySize=auto;html=1;fillColor=#cce5ff;strokeColor=#36393d;" parent="1" source="UrcYGBR2MilL74NsPiot-28" target="UrcYGBR2MilL74NsPiot-94" edge="1">
          <mxGeometry relative="1" as="geometry" />
        </mxCell>
        <mxCell id="UrcYGBR2MilL74NsPiot-28" value="Single Handle Stockli" style="whiteSpace=wrap;html=1;fillColor=#cce5ff;strokeColor=#36393d;" parent="1" vertex="1">
          <mxGeometry x="100" y="2700" width="120" height="60" as="geometry" />
        </mxCell>
        <mxCell id="UrcYGBR2MilL74NsPiot-118" style="edgeStyle=orthogonalEdgeStyle;rounded=0;orthogonalLoop=1;jettySize=auto;html=1;fillColor=#cce5ff;strokeColor=#36393d;" parent="1" source="UrcYGBR2MilL74NsPiot-29" target="UrcYGBR2MilL74NsPiot-117" edge="1">
          <mxGeometry relative="1" as="geometry" />
        </mxCell>
        <mxCell id="UrcYGBR2MilL74NsPiot-29" value="Single Handle Russian 180" style="whiteSpace=wrap;html=1;fillColor=#cce5ff;strokeColor=#36393d;" parent="1" vertex="1">
          <mxGeometry x="880" y="2700" width="120" height="60" as="geometry" />
        </mxCell>
        <mxCell id="UrcYGBR2MilL74NsPiot-30" value="" style="edgeStyle=orthogonalEdgeStyle;rounded=0;orthogonalLoop=1;jettySize=auto;html=1;fillColor=#cce5ff;strokeColor=#36393d;" parent="1" source="UrcYGBR2MilL74NsPiot-32" target="UrcYGBR2MilL74NsPiot-33" edge="1">
          <mxGeometry relative="1" as="geometry" />
        </mxCell>
        <mxCell id="UrcYGBR2MilL74NsPiot-31" style="edgeStyle=orthogonalEdgeStyle;rounded=0;orthogonalLoop=1;jettySize=auto;html=1;fillColor=#cce5ff;strokeColor=#36393d;" parent="1" source="UrcYGBR2MilL74NsPiot-32" target="UrcYGBR2MilL74NsPiot-29" edge="1">
          <mxGeometry relative="1" as="geometry">
            <Array as="points">
              <mxPoint x="740" y="2590" />
              <mxPoint x="940" y="2590" />
            </Array>
          </mxGeometry>
        </mxCell>
        <mxCell id="UrcYGBR2MilL74NsPiot-32" value="Russian 720" style="whiteSpace=wrap;html=1;fillColor=#cce5ff;strokeColor=#36393d;" parent="1" vertex="1">
          <mxGeometry x="680" y="2450" width="120" height="60" as="geometry" />
        </mxCell>
        <mxCell id="UrcYGBR2MilL74NsPiot-33" value="Russian 1080" style="whiteSpace=wrap;html=1;fillColor=#cce5ff;strokeColor=#36393d;" parent="1" vertex="1">
          <mxGeometry x="1080" y="2450" width="120" height="60" as="geometry" />
        </mxCell>
        <mxCell id="UrcYGBR2MilL74NsPiot-34" style="edgeStyle=orthogonalEdgeStyle;rounded=0;orthogonalLoop=1;jettySize=auto;html=1;fillColor=#cce5ff;strokeColor=#36393d;" parent="1" source="UrcYGBR2MilL74NsPiot-35" target="UrcYGBR2MilL74NsPiot-97" edge="1">
          <mxGeometry relative="1" as="geometry" />
        </mxCell>
        <mxCell id="UrcYGBR2MilL74NsPiot-35" value="Flair&amp;nbsp; 1/4 Spindle" style="whiteSpace=wrap;html=1;fillColor=#cce5ff;strokeColor=#36393d;" parent="1" vertex="1">
          <mxGeometry x="100" y="2330" width="120" height="60" as="geometry" />
        </mxCell>
        <mxCell id="UrcYGBR2MilL74NsPiot-36" value="" style="edgeStyle=orthogonalEdgeStyle;rounded=0;orthogonalLoop=1;jettySize=auto;html=1;fillColor=#cce5ff;strokeColor=#36393d;" parent="1" source="UrcYGBR2MilL74NsPiot-37" target="UrcYGBR2MilL74NsPiot-39" edge="1">
          <mxGeometry relative="1" as="geometry" />
        </mxCell>
        <mxCell id="UrcYGBR2MilL74NsPiot-37" value="Staggered Circles" style="whiteSpace=wrap;html=1;fillColor=#cce5ff;strokeColor=#36393d;" parent="1" vertex="1">
          <mxGeometry x="-680" y="2620" width="120" height="60" as="geometry" />
        </mxCell>
        <mxCell id="UrcYGBR2MilL74NsPiot-38" style="edgeStyle=orthogonalEdgeStyle;rounded=0;orthogonalLoop=1;jettySize=auto;html=1;entryX=0;entryY=0.5;entryDx=0;entryDy=0;fillColor=#cce5ff;strokeColor=#36393d;" parent="1" source="UrcYGBR2MilL74NsPiot-39" target="UrcYGBR2MilL74NsPiot-41" edge="1">
          <mxGeometry relative="1" as="geometry" />
        </mxCell>
        <mxCell id="UrcYGBR2MilL74NsPiot-39" value="Step up to Single Handle" style="whiteSpace=wrap;html=1;fillColor=#cce5ff;strokeColor=#36393d;" parent="1" vertex="1">
          <mxGeometry x="-520" y="2620" width="120" height="60" as="geometry" />
        </mxCell>
        <mxCell id="UrcYGBR2MilL74NsPiot-40" value="" style="edgeStyle=orthogonalEdgeStyle;rounded=0;orthogonalLoop=1;jettySize=auto;html=1;fillColor=#cce5ff;strokeColor=#36393d;" parent="1" source="UrcYGBR2MilL74NsPiot-41" target="UrcYGBR2MilL74NsPiot-43" edge="1">
          <mxGeometry relative="1" as="geometry" />
        </mxCell>
        <mxCell id="UrcYGBR2MilL74NsPiot-41" value="Circles over Handle" style="whiteSpace=wrap;html=1;fillColor=#cce5ff;strokeColor=#36393d;" parent="1" vertex="1">
          <mxGeometry x="100" y="2620" width="120" height="60" as="geometry" />
        </mxCell>
        <mxCell id="UrcYGBR2MilL74NsPiot-42" value="" style="edgeStyle=orthogonalEdgeStyle;rounded=0;orthogonalLoop=1;jettySize=auto;html=1;fillColor=#cce5ff;strokeColor=#36393d;" parent="1" source="UrcYGBR2MilL74NsPiot-43" target="UrcYGBR2MilL74NsPiot-45" edge="1">
          <mxGeometry relative="1" as="geometry">
            <Array as="points">
              <mxPoint x="550" y="2650" />
              <mxPoint x="550" y="2650" />
            </Array>
          </mxGeometry>
        </mxCell>
        <mxCell id="UrcYGBR2MilL74NsPiot-43" value="Flair Over Handle" style="whiteSpace=wrap;html=1;fillColor=#cce5ff;strokeColor=#36393d;" parent="1" vertex="1">
          <mxGeometry x="250" y="2620" width="120" height="60" as="geometry" />
        </mxCell>
        <mxCell id="UrcYGBR2MilL74NsPiot-44" style="edgeStyle=orthogonalEdgeStyle;rounded=0;orthogonalLoop=1;jettySize=auto;html=1;fillColor=#cce5ff;strokeColor=#36393d;" parent="1" source="UrcYGBR2MilL74NsPiot-45" target="UrcYGBR2MilL74NsPiot-95" edge="1">
          <mxGeometry relative="1" as="geometry" />
        </mxCell>
        <mxCell id="UrcYGBR2MilL74NsPiot-45" value="Flair 1/2 Spindle over Handle" style="whiteSpace=wrap;html=1;fillColor=#cce5ff;strokeColor=#36393d;" parent="1" vertex="1">
          <mxGeometry x="450" y="2620" width="120" height="60" as="geometry" />
        </mxCell>
        <mxCell id="UrcYGBR2MilL74NsPiot-46" style="edgeStyle=orthogonalEdgeStyle;rounded=0;orthogonalLoop=1;jettySize=auto;html=1;fillColor=#cce5ff;strokeColor=#36393d;" parent="1" source="UrcYGBR2MilL74NsPiot-47" target="UrcYGBR2MilL74NsPiot-97" edge="1">
          <mxGeometry relative="1" as="geometry" />
        </mxCell>
        <mxCell id="UrcYGBR2MilL74NsPiot-47" value="1/2 Spindle" style="whiteSpace=wrap;html=1;fillColor=#cce5ff;strokeColor=#36393d;" parent="1" vertex="1">
          <mxGeometry x="100" y="2190" width="120" height="60" as="geometry" />
        </mxCell>
        <mxCell id="UrcYGBR2MilL74NsPiot-48" value="" style="edgeStyle=orthogonalEdgeStyle;rounded=0;orthogonalLoop=1;jettySize=auto;html=1;fillColor=#cce5ff;strokeColor=#36393d;" parent="1" source="UrcYGBR2MilL74NsPiot-6" target="UrcYGBR2MilL74NsPiot-47" edge="1">
          <mxGeometry relative="1" as="geometry">
            <mxPoint x="-500" y="2280" as="sourcePoint" />
            <mxPoint x="120" y="2240" as="targetPoint" />
          </mxGeometry>
        </mxCell>
        <mxCell id="UrcYGBR2MilL74NsPiot-49" value="" style="edgeStyle=orthogonalEdgeStyle;rounded=0;orthogonalLoop=1;jettySize=auto;html=1;fillColor=#cce5ff;strokeColor=#36393d;" parent="1" source="UrcYGBR2MilL74NsPiot-50" target="UrcYGBR2MilL74NsPiot-16" edge="1">
          <mxGeometry relative="1" as="geometry" />
        </mxCell>
        <mxCell id="UrcYGBR2MilL74NsPiot-50" value="Direct Stockli A" style="whiteSpace=wrap;html=1;fillColor=#cce5ff;strokeColor=#36393d;" parent="1" vertex="1">
          <mxGeometry x="100" y="1960" width="120" height="60" as="geometry" />
        </mxCell>
        <mxCell id="UrcYGBR2MilL74NsPiot-130" value="" style="edgeStyle=orthogonalEdgeStyle;rounded=0;orthogonalLoop=1;jettySize=auto;html=1;fillColor=#cce5ff;strokeColor=#36393d;" parent="1" source="UrcYGBR2MilL74NsPiot-52" target="UrcYGBR2MilL74NsPiot-119" edge="1">
          <mxGeometry relative="1" as="geometry" />
        </mxCell>
        <mxCell id="UrcYGBR2MilL74NsPiot-52" value="Forward Loops" style="whiteSpace=wrap;html=1;fillColor=#cce5ff;strokeColor=#36393d;" parent="1" vertex="1">
          <mxGeometry x="-860" y="3150" width="120" height="60" as="geometry" />
        </mxCell>
        <mxCell id="UrcYGBR2MilL74NsPiot-132" value="" style="edgeStyle=orthogonalEdgeStyle;rounded=0;orthogonalLoop=1;jettySize=auto;html=1;fillColor=#cce5ff;strokeColor=#36393d;" parent="1" source="UrcYGBR2MilL74NsPiot-55" target="UrcYGBR2MilL74NsPiot-120" edge="1">
          <mxGeometry relative="1" as="geometry" />
        </mxCell>
        <mxCell id="UrcYGBR2MilL74NsPiot-133" style="edgeStyle=orthogonalEdgeStyle;rounded=0;orthogonalLoop=1;jettySize=auto;html=1;entryX=0;entryY=0.5;entryDx=0;entryDy=0;fillColor=#cce5ff;strokeColor=#36393d;" parent="1" source="UrcYGBR2MilL74NsPiot-55" target="UrcYGBR2MilL74NsPiot-57" edge="1">
          <mxGeometry relative="1" as="geometry">
            <Array as="points">
              <mxPoint x="-480" y="3430" />
            </Array>
          </mxGeometry>
        </mxCell>
        <mxCell id="UrcYGBR2MilL74NsPiot-134" style="edgeStyle=orthogonalEdgeStyle;rounded=0;orthogonalLoop=1;jettySize=auto;html=1;entryX=0;entryY=0.5;entryDx=0;entryDy=0;fillColor=#cce5ff;strokeColor=#36393d;" parent="1" source="UrcYGBR2MilL74NsPiot-55" target="UrcYGBR2MilL74NsPiot-62" edge="1">
          <mxGeometry relative="1" as="geometry">
            <Array as="points">
              <mxPoint x="-480" y="3510" />
            </Array>
          </mxGeometry>
        </mxCell>
        <mxCell id="UrcYGBR2MilL74NsPiot-55" value="Reverse Loops" style="whiteSpace=wrap;html=1;fillColor=#cce5ff;strokeColor=#36393d;" parent="1" vertex="1">
          <mxGeometry x="-540" y="3150" width="120" height="60" as="geometry" />
        </mxCell>
        <mxCell id="UrcYGBR2MilL74NsPiot-56" style="edgeStyle=orthogonalEdgeStyle;rounded=0;orthogonalLoop=1;jettySize=auto;html=1;entryX=0;entryY=0.5;entryDx=0;entryDy=0;fillColor=#cce5ff;strokeColor=#36393d;" parent="1" source="UrcYGBR2MilL74NsPiot-57" target="UrcYGBR2MilL74NsPiot-59" edge="1">
          <mxGeometry relative="1" as="geometry" />
        </mxCell>
        <mxCell id="UrcYGBR2MilL74NsPiot-57" value="1/3 Magyar" style="whiteSpace=wrap;html=1;fillColor=#cce5ff;strokeColor=#36393d;" parent="1" vertex="1">
          <mxGeometry x="-300" y="3400" width="120" height="60" as="geometry" />
        </mxCell>
        <mxCell id="UrcYGBR2MilL74NsPiot-58" value="" style="edgeStyle=orthogonalEdgeStyle;rounded=0;orthogonalLoop=1;jettySize=auto;html=1;fillColor=#cce5ff;strokeColor=#36393d;" parent="1" source="UrcYGBR2MilL74NsPiot-59" target="UrcYGBR2MilL74NsPiot-60" edge="1">
          <mxGeometry relative="1" as="geometry" />
        </mxCell>
        <mxCell id="UrcYGBR2MilL74NsPiot-59" value="1/2 or 2/3 Magyar" style="whiteSpace=wrap;html=1;fillColor=#cce5ff;strokeColor=#36393d;" parent="1" vertex="1">
          <mxGeometry x="140" y="3400" width="120" height="60" as="geometry" />
        </mxCell>
        <mxCell id="UrcYGBR2MilL74NsPiot-60" value="Magyar Travel" style="whiteSpace=wrap;html=1;fillColor=#cce5ff;strokeColor=#36393d;" parent="1" vertex="1">
          <mxGeometry x="1120" y="3400" width="120" height="60" as="geometry" />
        </mxCell>
        <mxCell id="UrcYGBR2MilL74NsPiot-61" style="edgeStyle=orthogonalEdgeStyle;rounded=0;orthogonalLoop=1;jettySize=auto;html=1;entryX=0;entryY=0.5;entryDx=0;entryDy=0;fillColor=#cce5ff;strokeColor=#36393d;" parent="1" source="UrcYGBR2MilL74NsPiot-62" target="UrcYGBR2MilL74NsPiot-64" edge="1">
          <mxGeometry relative="1" as="geometry" />
        </mxCell>
        <mxCell id="UrcYGBR2MilL74NsPiot-62" value="1/3 Sivado" style="whiteSpace=wrap;html=1;fillColor=#cce5ff;strokeColor=#36393d;" parent="1" vertex="1">
          <mxGeometry x="-300" y="3480" width="120" height="60" as="geometry" />
        </mxCell>
        <mxCell id="UrcYGBR2MilL74NsPiot-63" value="" style="edgeStyle=orthogonalEdgeStyle;rounded=0;orthogonalLoop=1;jettySize=auto;html=1;fillColor=#cce5ff;strokeColor=#36393d;" parent="1" source="UrcYGBR2MilL74NsPiot-64" target="UrcYGBR2MilL74NsPiot-65" edge="1">
          <mxGeometry relative="1" as="geometry" />
        </mxCell>
        <mxCell id="UrcYGBR2MilL74NsPiot-64" value="1/2 or 2/3 Sivado" style="whiteSpace=wrap;html=1;fillColor=#cce5ff;strokeColor=#36393d;" parent="1" vertex="1">
          <mxGeometry x="140" y="3480" width="120" height="60" as="geometry" />
        </mxCell>
        <mxCell id="UrcYGBR2MilL74NsPiot-65" value="Sivado Travel" style="whiteSpace=wrap;html=1;fillColor=#cce5ff;strokeColor=#36393d;" parent="1" vertex="1">
          <mxGeometry x="1120" y="3480" width="120" height="60" as="geometry" />
        </mxCell>
        <mxCell id="UrcYGBR2MilL74NsPiot-66" value="Swiss Hop" style="whiteSpace=wrap;html=1;fillColor=#cce5ff;strokeColor=#36393d;" parent="1" vertex="1">
          <mxGeometry x="-680" y="2540" width="120" height="60" as="geometry" />
        </mxCell>
        <mxCell id="UrcYGBR2MilL74NsPiot-67" value="" style="edgeStyle=orthogonalEdgeStyle;rounded=0;orthogonalLoop=1;jettySize=auto;html=1;fillColor=#cce5ff;strokeColor=#36393d;" parent="1" source="UrcYGBR2MilL74NsPiot-68" target="UrcYGBR2MilL74NsPiot-70" edge="1">
          <mxGeometry relative="1" as="geometry" />
        </mxCell>
        <mxCell id="UrcYGBR2MilL74NsPiot-68" value="&lt;div&gt;1/4 Circle&lt;/div&gt;" style="whiteSpace=wrap;html=1;fillColor=#cce5ff;strokeColor=#36393d;" parent="1" vertex="1">
          <mxGeometry x="-2110" y="2190" width="120" height="60" as="geometry" />
        </mxCell>
        <mxCell id="UrcYGBR2MilL74NsPiot-69" value="" style="edgeStyle=orthogonalEdgeStyle;rounded=0;orthogonalLoop=1;jettySize=auto;html=1;fillColor=#cce5ff;strokeColor=#36393d;" parent="1" source="UrcYGBR2MilL74NsPiot-70" target="UrcYGBR2MilL74NsPiot-72" edge="1">
          <mxGeometry relative="1" as="geometry" />
        </mxCell>
        <mxCell id="UrcYGBR2MilL74NsPiot-70" value="1/2 Circle" style="whiteSpace=wrap;html=1;fillColor=#cce5ff;strokeColor=#36393d;" parent="1" vertex="1">
          <mxGeometry x="-1940" y="2190" width="120" height="60" as="geometry" />
        </mxCell>
        <mxCell id="UrcYGBR2MilL74NsPiot-71" value="" style="edgeStyle=orthogonalEdgeStyle;rounded=0;orthogonalLoop=1;jettySize=auto;html=1;fillColor=#cce5ff;strokeColor=#36393d;" parent="1" source="UrcYGBR2MilL74NsPiot-72" target="UrcYGBR2MilL74NsPiot-4" edge="1">
          <mxGeometry relative="1" as="geometry" />
        </mxCell>
        <mxCell id="UrcYGBR2MilL74NsPiot-72" value="3/4 Circle" style="whiteSpace=wrap;html=1;fillColor=#cce5ff;strokeColor=#36393d;" parent="1" vertex="1">
          <mxGeometry x="-1780" y="2190" width="120" height="60" as="geometry" />
        </mxCell>
        <mxCell id="UrcYGBR2MilL74NsPiot-73" value="" style="edgeStyle=orthogonalEdgeStyle;rounded=0;orthogonalLoop=1;jettySize=auto;html=1;fillColor=#cce5ff;strokeColor=#36393d;" parent="1" source="UrcYGBR2MilL74NsPiot-74" target="UrcYGBR2MilL74NsPiot-76" edge="1">
          <mxGeometry relative="1" as="geometry" />
        </mxCell>
        <mxCell id="UrcYGBR2MilL74NsPiot-74" value="2 Circles" style="whiteSpace=wrap;html=1;fillColor=#cce5ff;strokeColor=#36393d;" parent="1" vertex="1">
          <mxGeometry x="-1450" y="2190" width="120" height="60" as="geometry" />
        </mxCell>
        <mxCell id="UrcYGBR2MilL74NsPiot-75" value="" style="edgeStyle=orthogonalEdgeStyle;rounded=0;orthogonalLoop=1;jettySize=auto;html=1;fillColor=#cce5ff;strokeColor=#36393d;" parent="1" source="UrcYGBR2MilL74NsPiot-76" target="UrcYGBR2MilL74NsPiot-78" edge="1">
          <mxGeometry relative="1" as="geometry" />
        </mxCell>
        <mxCell id="UrcYGBR2MilL74NsPiot-76" value="5 Circles" style="whiteSpace=wrap;html=1;fillColor=#cce5ff;strokeColor=#36393d;" parent="1" vertex="1">
          <mxGeometry x="-1280" y="2190" width="120" height="60" as="geometry" />
        </mxCell>
        <mxCell id="UrcYGBR2MilL74NsPiot-77" value="" style="edgeStyle=orthogonalEdgeStyle;rounded=0;orthogonalLoop=1;jettySize=auto;html=1;fillColor=#cce5ff;strokeColor=#36393d;" parent="1" source="UrcYGBR2MilL74NsPiot-78" target="UrcYGBR2MilL74NsPiot-84" edge="1">
          <mxGeometry relative="1" as="geometry" />
        </mxCell>
        <mxCell id="UrcYGBR2MilL74NsPiot-78" value="10 Circles" style="whiteSpace=wrap;html=1;fillColor=#cce5ff;strokeColor=#36393d;" parent="1" vertex="1">
          <mxGeometry x="-1130" y="2190" width="120" height="60" as="geometry" />
        </mxCell>
        <mxCell id="UrcYGBR2MilL74NsPiot-79" style="edgeStyle=orthogonalEdgeStyle;rounded=0;orthogonalLoop=1;jettySize=auto;html=1;fillColor=#cce5ff;strokeColor=#36393d;" parent="1" source="UrcYGBR2MilL74NsPiot-84" target="UrcYGBR2MilL74NsPiot-6" edge="1">
          <mxGeometry relative="1" as="geometry" />
        </mxCell>
        <mxCell id="UrcYGBR2MilL74NsPiot-80" style="edgeStyle=orthogonalEdgeStyle;rounded=0;orthogonalLoop=1;jettySize=auto;html=1;entryX=0;entryY=0.5;entryDx=0;entryDy=0;fillColor=#cce5ff;strokeColor=#36393d;" parent="1" source="UrcYGBR2MilL74NsPiot-84" target="UrcYGBR2MilL74NsPiot-12" edge="1">
          <mxGeometry relative="1" as="geometry" />
        </mxCell>
        <mxCell id="UrcYGBR2MilL74NsPiot-81" style="edgeStyle=orthogonalEdgeStyle;rounded=0;orthogonalLoop=1;jettySize=auto;html=1;entryX=0;entryY=0.633;entryDx=0;entryDy=0;entryPerimeter=0;fillColor=#cce5ff;strokeColor=#36393d;" parent="1" source="UrcYGBR2MilL74NsPiot-84" target="UrcYGBR2MilL74NsPiot-19" edge="1">
          <mxGeometry relative="1" as="geometry" />
        </mxCell>
        <mxCell id="UrcYGBR2MilL74NsPiot-82" style="edgeStyle=orthogonalEdgeStyle;rounded=0;orthogonalLoop=1;jettySize=auto;html=1;entryX=0;entryY=0.5;entryDx=0;entryDy=0;fillColor=#cce5ff;strokeColor=#36393d;" parent="1" source="UrcYGBR2MilL74NsPiot-84" target="UrcYGBR2MilL74NsPiot-22" edge="1">
          <mxGeometry relative="1" as="geometry" />
        </mxCell>
        <mxCell id="UrcYGBR2MilL74NsPiot-83" style="edgeStyle=orthogonalEdgeStyle;rounded=0;orthogonalLoop=1;jettySize=auto;html=1;entryX=0;entryY=0.5;entryDx=0;entryDy=0;fillColor=#cce5ff;strokeColor=#36393d;" parent="1" source="UrcYGBR2MilL74NsPiot-84" target="UrcYGBR2MilL74NsPiot-107" edge="1">
          <mxGeometry relative="1" as="geometry">
            <Array as="points">
              <mxPoint x="-910" y="1800" />
            </Array>
          </mxGeometry>
        </mxCell>
        <mxCell id="UrcYGBR2MilL74NsPiot-84" value="20 Circles" style="whiteSpace=wrap;html=1;fillColor=#cce5ff;strokeColor=#36393d;" parent="1" vertex="1">
          <mxGeometry x="-970" y="2190" width="120" height="60" as="geometry" />
        </mxCell>
        <mxCell id="UrcYGBR2MilL74NsPiot-85" style="edgeStyle=orthogonalEdgeStyle;rounded=0;orthogonalLoop=1;jettySize=auto;html=1;entryX=0.5;entryY=0;entryDx=0;entryDy=0;fillColor=#cce5ff;strokeColor=#36393d;" parent="1" source="UrcYGBR2MilL74NsPiot-86" target="UrcYGBR2MilL74NsPiot-43" edge="1">
          <mxGeometry relative="1" as="geometry" />
        </mxCell>
        <mxCell id="UrcYGBR2MilL74NsPiot-86" value="Flair" style="ellipse;whiteSpace=wrap;html=1;fillColor=#cce5ff;strokeColor=#36393d;" parent="1" vertex="1">
          <mxGeometry x="100" y="2540" width="120" height="60" as="geometry" />
        </mxCell>
        <mxCell id="UrcYGBR2MilL74NsPiot-87" value="" style="edgeStyle=orthogonalEdgeStyle;rounded=0;orthogonalLoop=1;jettySize=auto;html=1;fillColor=#cce5ff;strokeColor=#36393d;" parent="1" source="UrcYGBR2MilL74NsPiot-88" target="UrcYGBR2MilL74NsPiot-90" edge="1">
          <mxGeometry relative="1" as="geometry" />
        </mxCell>
        <mxCell id="UrcYGBR2MilL74NsPiot-88" value="SIngle Handle Circle x2" style="whiteSpace=wrap;html=1;fillColor=#cce5ff;strokeColor=#36393d;" parent="1" vertex="1">
          <mxGeometry x="-520" y="2700" width="120" height="60" as="geometry" />
        </mxCell>
        <mxCell id="UrcYGBR2MilL74NsPiot-89" value="" style="edgeStyle=orthogonalEdgeStyle;rounded=0;orthogonalLoop=1;jettySize=auto;html=1;fillColor=#cce5ff;strokeColor=#36393d;" parent="1" source="UrcYGBR2MilL74NsPiot-90" target="UrcYGBR2MilL74NsPiot-92" edge="1">
          <mxGeometry relative="1" as="geometry" />
        </mxCell>
        <mxCell id="UrcYGBR2MilL74NsPiot-90" value="&lt;div&gt;Single Handle Circle&amp;nbsp; &lt;br&gt;&lt;/div&gt;&lt;div&gt;x 5&lt;/div&gt;" style="whiteSpace=wrap;html=1;fillColor=#cce5ff;strokeColor=#36393d;" parent="1" vertex="1">
          <mxGeometry x="-340" y="2700" width="120" height="60" as="geometry" />
        </mxCell>
        <mxCell id="UrcYGBR2MilL74NsPiot-91" style="edgeStyle=orthogonalEdgeStyle;rounded=0;orthogonalLoop=1;jettySize=auto;html=1;entryX=0;entryY=0.5;entryDx=0;entryDy=0;fillColor=#cce5ff;strokeColor=#36393d;" parent="1" source="UrcYGBR2MilL74NsPiot-92" target="UrcYGBR2MilL74NsPiot-28" edge="1">
          <mxGeometry relative="1" as="geometry" />
        </mxCell>
        <mxCell id="UrcYGBR2MilL74NsPiot-116" style="edgeStyle=orthogonalEdgeStyle;rounded=0;orthogonalLoop=1;jettySize=auto;html=1;entryX=0;entryY=0.5;entryDx=0;entryDy=0;fillColor=#cce5ff;strokeColor=#36393d;" parent="1" source="UrcYGBR2MilL74NsPiot-92" target="UrcYGBR2MilL74NsPiot-115" edge="1">
          <mxGeometry relative="1" as="geometry">
            <Array as="points">
              <mxPoint x="-120" y="2830" />
            </Array>
          </mxGeometry>
        </mxCell>
        <mxCell id="UrcYGBR2MilL74NsPiot-92" value="&lt;div&gt;Single Handle Circle&lt;/div&gt;&lt;div&gt;&amp;nbsp;x 10&lt;/div&gt;" style="whiteSpace=wrap;html=1;fillColor=#cce5ff;strokeColor=#36393d;" parent="1" vertex="1">
          <mxGeometry x="-180" y="2700" width="120" height="60" as="geometry" />
        </mxCell>
        <mxCell id="UrcYGBR2MilL74NsPiot-93" style="edgeStyle=orthogonalEdgeStyle;rounded=0;orthogonalLoop=1;jettySize=auto;html=1;entryX=0;entryY=0.5;entryDx=0;entryDy=0;fillColor=#cce5ff;strokeColor=#36393d;" parent="1" source="UrcYGBR2MilL74NsPiot-94" target="UrcYGBR2MilL74NsPiot-29" edge="1">
          <mxGeometry relative="1" as="geometry" />
        </mxCell>
        <mxCell id="UrcYGBR2MilL74NsPiot-94" value="Single Handle Stockli x2" style="whiteSpace=wrap;html=1;fillColor=#cce5ff;strokeColor=#36393d;" parent="1" vertex="1">
          <mxGeometry x="250" y="2700" width="120" height="60" as="geometry" />
        </mxCell>
        <mxCell id="UrcYGBR2MilL74NsPiot-95" value="Flair 1/1 Spindle Over Handle" style="whiteSpace=wrap;html=1;fillColor=#cce5ff;strokeColor=#36393d;" parent="1" vertex="1">
          <mxGeometry x="680" y="2620" width="120" height="60" as="geometry" />
        </mxCell>
        <mxCell id="UrcYGBR2MilL74NsPiot-96" style="edgeStyle=orthogonalEdgeStyle;rounded=0;orthogonalLoop=1;jettySize=auto;html=1;entryX=0;entryY=0.5;entryDx=0;entryDy=0;fillColor=#cce5ff;strokeColor=#36393d;" parent="1" source="UrcYGBR2MilL74NsPiot-97" target="UrcYGBR2MilL74NsPiot-98" edge="1">
          <mxGeometry relative="1" as="geometry" />
        </mxCell>
        <mxCell id="UrcYGBR2MilL74NsPiot-97" value="Flair 1/2 Spindle" style="whiteSpace=wrap;html=1;fillColor=#cce5ff;strokeColor=#36393d;" parent="1" vertex="1">
          <mxGeometry x="680" y="2330" width="120" height="60" as="geometry" />
        </mxCell>
        <mxCell id="UrcYGBR2MilL74NsPiot-98" value="Flair 1/1 Spindle" style="whiteSpace=wrap;html=1;fillColor=#cce5ff;strokeColor=#36393d;" parent="1" vertex="1">
          <mxGeometry x="1080" y="2330" width="120" height="60" as="geometry" />
        </mxCell>
        <mxCell id="UrcYGBR2MilL74NsPiot-99" style="edgeStyle=orthogonalEdgeStyle;rounded=0;orthogonalLoop=1;jettySize=auto;html=1;entryX=0;entryY=0.5;entryDx=0;entryDy=0;fillColor=#cce5ff;strokeColor=#36393d;" parent="1" source="UrcYGBR2MilL74NsPiot-101" target="UrcYGBR2MilL74NsPiot-37" edge="1">
          <mxGeometry relative="1" as="geometry" />
        </mxCell>
        <mxCell id="UrcYGBR2MilL74NsPiot-100" style="edgeStyle=orthogonalEdgeStyle;rounded=0;orthogonalLoop=1;jettySize=auto;html=1;fillColor=#cce5ff;strokeColor=#36393d;" parent="1" source="UrcYGBR2MilL74NsPiot-101" target="UrcYGBR2MilL74NsPiot-26" edge="1">
          <mxGeometry relative="1" as="geometry" />
        </mxCell>
        <mxCell id="UrcYGBR2MilL74NsPiot-101" value="Pommel Horse: Single Handled Trainer" style="ellipse;whiteSpace=wrap;html=1;fillColor=#cce5ff;strokeColor=#36393d;" parent="1" vertex="1">
          <mxGeometry x="-1060" y="2700" width="120" height="60" as="geometry" />
        </mxCell>
        <mxCell id="UrcYGBR2MilL74NsPiot-102" value="" style="edgeStyle=orthogonalEdgeStyle;rounded=0;orthogonalLoop=1;jettySize=auto;html=1;fillColor=#cce5ff;strokeColor=#36393d;" parent="1" source="UrcYGBR2MilL74NsPiot-103" target="UrcYGBR2MilL74NsPiot-45" edge="1">
          <mxGeometry relative="1" as="geometry" />
        </mxCell>
        <mxCell id="UrcYGBR2MilL74NsPiot-103" value="See Flair Spindle Progressions" style="ellipse;whiteSpace=wrap;html=1;fillColor=#cce5ff;strokeColor=#36393d;" parent="1" vertex="1">
          <mxGeometry x="450" y="2510" width="120" height="60" as="geometry" />
        </mxCell>
        <mxCell id="UrcYGBR2MilL74NsPiot-104" style="edgeStyle=orthogonalEdgeStyle;rounded=0;orthogonalLoop=1;jettySize=auto;html=1;fillColor=#cce5ff;strokeColor=#36393d;" parent="1" source="UrcYGBR2MilL74NsPiot-105" target="UrcYGBR2MilL74NsPiot-111" edge="1">
          <mxGeometry relative="1" as="geometry" />
        </mxCell>
        <mxCell id="UrcYGBR2MilL74NsPiot-105" value="50 Circles" style="whiteSpace=wrap;html=1;fillColor=#cce5ff;strokeColor=#36393d;" parent="1" vertex="1">
          <mxGeometry x="90" y="1770" width="120" height="60" as="geometry" />
        </mxCell>
        <mxCell id="UrcYGBR2MilL74NsPiot-106" style="edgeStyle=orthogonalEdgeStyle;rounded=0;orthogonalLoop=1;jettySize=auto;html=1;entryX=0;entryY=0.5;entryDx=0;entryDy=0;fillColor=#cce5ff;strokeColor=#36393d;" parent="1" source="UrcYGBR2MilL74NsPiot-107" target="UrcYGBR2MilL74NsPiot-109" edge="1">
          <mxGeometry relative="1" as="geometry" />
        </mxCell>
        <mxCell id="UrcYGBR2MilL74NsPiot-107" value="30 Circles " style="whiteSpace=wrap;html=1;fillColor=#cce5ff;strokeColor=#36393d;" parent="1" vertex="1">
          <mxGeometry x="-690" y="1770" width="120" height="60" as="geometry" />
        </mxCell>
        <mxCell id="UrcYGBR2MilL74NsPiot-108" style="edgeStyle=orthogonalEdgeStyle;rounded=0;orthogonalLoop=1;jettySize=auto;html=1;fillColor=#cce5ff;strokeColor=#36393d;" parent="1" source="UrcYGBR2MilL74NsPiot-109" target="UrcYGBR2MilL74NsPiot-105" edge="1">
          <mxGeometry relative="1" as="geometry" />
        </mxCell>
        <mxCell id="UrcYGBR2MilL74NsPiot-109" value="40 Circles" style="whiteSpace=wrap;html=1;fillColor=#cce5ff;strokeColor=#36393d;" parent="1" vertex="1">
          <mxGeometry x="-290" y="1770" width="120" height="60" as="geometry" />
        </mxCell>
        <mxCell id="UrcYGBR2MilL74NsPiot-110" style="edgeStyle=orthogonalEdgeStyle;rounded=0;orthogonalLoop=1;jettySize=auto;html=1;entryX=0;entryY=0.5;entryDx=0;entryDy=0;fillColor=#cce5ff;strokeColor=#36393d;" parent="1" source="UrcYGBR2MilL74NsPiot-111" target="UrcYGBR2MilL74NsPiot-112" edge="1">
          <mxGeometry relative="1" as="geometry" />
        </mxCell>
        <mxCell id="UrcYGBR2MilL74NsPiot-111" value="75 Circles" style="whiteSpace=wrap;html=1;fillColor=#cce5ff;strokeColor=#36393d;" parent="1" vertex="1">
          <mxGeometry x="620" y="1770" width="120" height="60" as="geometry" />
        </mxCell>
        <mxCell id="UrcYGBR2MilL74NsPiot-112" value="100 Circles" style="whiteSpace=wrap;html=1;fillColor=#cce5ff;strokeColor=#36393d;" parent="1" vertex="1">
          <mxGeometry x="1080" y="1770" width="120" height="60" as="geometry" />
        </mxCell>
        <mxCell id="UrcYGBR2MilL74NsPiot-113" style="edgeStyle=orthogonalEdgeStyle;rounded=0;orthogonalLoop=1;jettySize=auto;html=1;entryX=0;entryY=0.5;entryDx=0;entryDy=0;fillColor=#cce5ff;strokeColor=#36393d;" parent="1" source="UrcYGBR2MilL74NsPiot-114" target="UrcYGBR2MilL74NsPiot-52" edge="1">
          <mxGeometry relative="1" as="geometry" />
        </mxCell>
        <mxCell id="UrcYGBR2MilL74NsPiot-114" value="&lt;div&gt;Pommel Horse:&lt;/div&gt;&lt;div&gt;No Handle Trainer&lt;br&gt;&lt;/div&gt;" style="ellipse;whiteSpace=wrap;html=1;fillColor=#cce5ff;strokeColor=#36393d;" parent="1" vertex="1">
          <mxGeometry x="-1020" y="3150" width="120" height="60" as="geometry" />
        </mxCell>
        <mxCell id="UrcYGBR2MilL74NsPiot-115" value="Single Handle Circles x 20" style="whiteSpace=wrap;html=1;fillColor=#cce5ff;strokeColor=#36393d;" parent="1" vertex="1">
          <mxGeometry x="100" y="2800" width="120" height="60" as="geometry" />
        </mxCell>
        <mxCell id="UrcYGBR2MilL74NsPiot-117" value="Single Handle Russian 360" style="whiteSpace=wrap;html=1;fillColor=#cce5ff;strokeColor=#36393d;" parent="1" vertex="1">
          <mxGeometry x="1270" y="2700" width="120" height="60" as="geometry" />
        </mxCell>
        <mxCell id="UrcYGBR2MilL74NsPiot-131" value="" style="edgeStyle=orthogonalEdgeStyle;rounded=0;orthogonalLoop=1;jettySize=auto;html=1;fillColor=#cce5ff;strokeColor=#36393d;" parent="1" source="UrcYGBR2MilL74NsPiot-119" target="UrcYGBR2MilL74NsPiot-55" edge="1">
          <mxGeometry relative="1" as="geometry" />
        </mxCell>
        <mxCell id="UrcYGBR2MilL74NsPiot-119" value="Side Support Circles, Forwards" style="whiteSpace=wrap;html=1;fillColor=#cce5ff;strokeColor=#36393d;" parent="1" vertex="1">
          <mxGeometry x="-710" y="3150" width="120" height="60" as="geometry" />
        </mxCell>
        <mxCell id="UrcYGBR2MilL74NsPiot-124" style="edgeStyle=orthogonalEdgeStyle;rounded=0;orthogonalLoop=1;jettySize=auto;html=1;entryX=0;entryY=0.5;entryDx=0;entryDy=0;fillColor=#cce5ff;strokeColor=#36393d;" parent="1" source="UrcYGBR2MilL74NsPiot-120" target="UrcYGBR2MilL74NsPiot-123" edge="1">
          <mxGeometry relative="1" as="geometry" />
        </mxCell>
        <mxCell id="UrcYGBR2MilL74NsPiot-138" style="edgeStyle=orthogonalEdgeStyle;rounded=0;orthogonalLoop=1;jettySize=auto;html=1;fillColor=#cce5ff;strokeColor=#36393d;" parent="1" source="UrcYGBR2MilL74NsPiot-120" target="UrcYGBR2MilL74NsPiot-137" edge="1">
          <mxGeometry relative="1" as="geometry" />
        </mxCell>
        <mxCell id="UrcYGBR2MilL74NsPiot-144" style="edgeStyle=orthogonalEdgeStyle;rounded=0;orthogonalLoop=1;jettySize=auto;html=1;entryX=0;entryY=0.5;entryDx=0;entryDy=0;fillColor=#cce5ff;strokeColor=#36393d;" parent="1" source="UrcYGBR2MilL74NsPiot-120" target="UrcYGBR2MilL74NsPiot-143" edge="1">
          <mxGeometry relative="1" as="geometry" />
        </mxCell>
        <mxCell id="UrcYGBR2MilL74NsPiot-163" style="edgeStyle=orthogonalEdgeStyle;rounded=0;orthogonalLoop=1;jettySize=auto;html=1;entryX=0.5;entryY=0;entryDx=0;entryDy=0;fillColor=#cce5ff;strokeColor=#36393d;" parent="1" source="UrcYGBR2MilL74NsPiot-120" target="UrcYGBR2MilL74NsPiot-162" edge="1">
          <mxGeometry relative="1" as="geometry" />
        </mxCell>
        <mxCell id="UrcYGBR2MilL74NsPiot-167" style="edgeStyle=orthogonalEdgeStyle;rounded=0;orthogonalLoop=1;jettySize=auto;html=1;entryX=0;entryY=0.5;entryDx=0;entryDy=0;fillColor=#cce5ff;strokeColor=#36393d;" parent="1" source="UrcYGBR2MilL74NsPiot-120" target="UrcYGBR2MilL74NsPiot-166" edge="1">
          <mxGeometry relative="1" as="geometry" />
        </mxCell>
        <mxCell id="UrcYGBR2MilL74NsPiot-120" value="Side Support Circles, Reverse" style="whiteSpace=wrap;html=1;fillColor=#cce5ff;strokeColor=#36393d;" parent="1" vertex="1">
          <mxGeometry x="-360" y="3150" width="120" height="60" as="geometry" />
        </mxCell>
        <mxCell id="UrcYGBR2MilL74NsPiot-127" style="edgeStyle=orthogonalEdgeStyle;rounded=0;orthogonalLoop=1;jettySize=auto;html=1;fillColor=#cce5ff;strokeColor=#36393d;" parent="1" source="UrcYGBR2MilL74NsPiot-123" target="UrcYGBR2MilL74NsPiot-126" edge="1">
          <mxGeometry relative="1" as="geometry" />
        </mxCell>
        <mxCell id="UrcYGBR2MilL74NsPiot-174" style="edgeStyle=orthogonalEdgeStyle;rounded=0;orthogonalLoop=1;jettySize=auto;html=1;entryX=0;entryY=0.75;entryDx=0;entryDy=0;fillColor=#cce5ff;strokeColor=#36393d;" parent="1" source="UrcYGBR2MilL74NsPiot-123" target="UrcYGBR2MilL74NsPiot-168" edge="1">
          <mxGeometry relative="1" as="geometry" />
        </mxCell>
        <mxCell id="UrcYGBR2MilL74NsPiot-123" value="1/4 Spindle" style="whiteSpace=wrap;html=1;fillColor=#cce5ff;strokeColor=#36393d;" parent="1" vertex="1">
          <mxGeometry x="-140" y="3010" width="120" height="60" as="geometry" />
        </mxCell>
        <mxCell id="UrcYGBR2MilL74NsPiot-129" style="edgeStyle=orthogonalEdgeStyle;rounded=0;orthogonalLoop=1;jettySize=auto;html=1;fillColor=#cce5ff;strokeColor=#36393d;" parent="1" source="UrcYGBR2MilL74NsPiot-126" target="UrcYGBR2MilL74NsPiot-128" edge="1">
          <mxGeometry relative="1" as="geometry" />
        </mxCell>
        <mxCell id="UrcYGBR2MilL74NsPiot-175" style="edgeStyle=orthogonalEdgeStyle;rounded=0;orthogonalLoop=1;jettySize=auto;html=1;entryX=0;entryY=0.75;entryDx=0;entryDy=0;fillColor=#cce5ff;strokeColor=#36393d;" parent="1" source="UrcYGBR2MilL74NsPiot-126" target="UrcYGBR2MilL74NsPiot-170" edge="1">
          <mxGeometry relative="1" as="geometry" />
        </mxCell>
        <mxCell id="UrcYGBR2MilL74NsPiot-126" value="1/2 Spindle" style="whiteSpace=wrap;html=1;fillColor=#cce5ff;strokeColor=#36393d;" parent="1" vertex="1">
          <mxGeometry x="140" y="3010" width="120" height="60" as="geometry" />
        </mxCell>
        <mxCell id="UrcYGBR2MilL74NsPiot-176" style="edgeStyle=orthogonalEdgeStyle;rounded=0;orthogonalLoop=1;jettySize=auto;html=1;entryX=0;entryY=0.75;entryDx=0;entryDy=0;fillColor=#cce5ff;strokeColor=#36393d;" parent="1" source="UrcYGBR2MilL74NsPiot-128" target="UrcYGBR2MilL74NsPiot-172" edge="1">
          <mxGeometry relative="1" as="geometry" />
        </mxCell>
        <mxCell id="UrcYGBR2MilL74NsPiot-128" value="1/1 Spindle" style="whiteSpace=wrap;html=1;fillColor=#cce5ff;strokeColor=#36393d;" parent="1" vertex="1">
          <mxGeometry x="1120" y="3010" width="120" height="60" as="geometry" />
        </mxCell>
        <mxCell id="UrcYGBR2MilL74NsPiot-141" style="edgeStyle=orthogonalEdgeStyle;rounded=0;orthogonalLoop=1;jettySize=auto;html=1;entryX=0;entryY=0.5;entryDx=0;entryDy=0;fillColor=#cce5ff;strokeColor=#36393d;" parent="1" source="UrcYGBR2MilL74NsPiot-135" target="UrcYGBR2MilL74NsPiot-140" edge="1">
          <mxGeometry relative="1" as="geometry" />
        </mxCell>
        <mxCell id="UrcYGBR2MilL74NsPiot-135" value="1/4 Kehr" style="whiteSpace=wrap;html=1;fillColor=#cce5ff;strokeColor=#36393d;" parent="1" vertex="1">
          <mxGeometry x="-140" y="3080" width="120" height="60" as="geometry" />
        </mxCell>
        <mxCell id="UrcYGBR2MilL74NsPiot-142" style="edgeStyle=orthogonalEdgeStyle;rounded=0;orthogonalLoop=1;jettySize=auto;html=1;entryX=0;entryY=0.5;entryDx=0;entryDy=0;fillColor=#cce5ff;strokeColor=#36393d;" parent="1" source="UrcYGBR2MilL74NsPiot-137" target="UrcYGBR2MilL74NsPiot-139" edge="1">
          <mxGeometry relative="1" as="geometry" />
        </mxCell>
        <mxCell id="UrcYGBR2MilL74NsPiot-137" value="1/4 Czechkehr" style="whiteSpace=wrap;html=1;fillColor=#cce5ff;strokeColor=#36393d;" parent="1" vertex="1">
          <mxGeometry x="-140" y="3150" width="120" height="60" as="geometry" />
        </mxCell>
        <mxCell id="UrcYGBR2MilL74NsPiot-147" style="edgeStyle=orthogonalEdgeStyle;rounded=0;orthogonalLoop=1;jettySize=auto;html=1;entryX=0;entryY=0.5;entryDx=0;entryDy=0;fillColor=#cce5ff;strokeColor=#36393d;" parent="1" source="UrcYGBR2MilL74NsPiot-139" target="UrcYGBR2MilL74NsPiot-146" edge="1">
          <mxGeometry relative="1" as="geometry" />
        </mxCell>
        <mxCell id="UrcYGBR2MilL74NsPiot-139" value="Direct Stockli A" style="whiteSpace=wrap;html=1;fillColor=#cce5ff;strokeColor=#36393d;" parent="1" vertex="1">
          <mxGeometry x="140" y="3080" width="120" height="60" as="geometry" />
        </mxCell>
        <mxCell id="UrcYGBR2MilL74NsPiot-148" style="edgeStyle=orthogonalEdgeStyle;rounded=0;orthogonalLoop=1;jettySize=auto;html=1;entryX=0;entryY=0.5;entryDx=0;entryDy=0;fillColor=#cce5ff;strokeColor=#36393d;" parent="1" source="UrcYGBR2MilL74NsPiot-140" target="UrcYGBR2MilL74NsPiot-146" edge="1">
          <mxGeometry relative="1" as="geometry">
            <mxPoint x="1281" y="3150" as="targetPoint" />
            <Array as="points">
              <mxPoint x="690" y="3180" />
              <mxPoint x="690" y="3140" />
            </Array>
          </mxGeometry>
        </mxCell>
        <mxCell id="UrcYGBR2MilL74NsPiot-140" value="Czechkehr" style="whiteSpace=wrap;html=1;fillColor=#cce5ff;strokeColor=#36393d;" parent="1" vertex="1">
          <mxGeometry x="140" y="3150" width="120" height="60" as="geometry" />
        </mxCell>
        <mxCell id="UrcYGBR2MilL74NsPiot-153" style="edgeStyle=orthogonalEdgeStyle;rounded=0;orthogonalLoop=1;jettySize=auto;html=1;entryX=0;entryY=0.5;entryDx=0;entryDy=0;fillColor=#cce5ff;strokeColor=#36393d;" parent="1" source="UrcYGBR2MilL74NsPiot-143" target="UrcYGBR2MilL74NsPiot-152" edge="1">
          <mxGeometry relative="1" as="geometry" />
        </mxCell>
        <mxCell id="UrcYGBR2MilL74NsPiot-143" value="Russian 180" style="whiteSpace=wrap;html=1;fillColor=#cce5ff;strokeColor=#36393d;" parent="1" vertex="1">
          <mxGeometry x="-140" y="3220" width="120" height="60" as="geometry" />
        </mxCell>
        <mxCell id="UrcYGBR2MilL74NsPiot-145" value="Mougilny" style="whiteSpace=wrap;html=1;fillColor=#cce5ff;strokeColor=#36393d;" parent="1" vertex="1">
          <mxGeometry x="1530" y="3110" width="120" height="60" as="geometry" />
        </mxCell>
        <mxCell id="UrcYGBR2MilL74NsPiot-149" style="edgeStyle=orthogonalEdgeStyle;rounded=0;orthogonalLoop=1;jettySize=auto;html=1;entryX=0;entryY=0.5;entryDx=0;entryDy=0;fillColor=#cce5ff;strokeColor=#36393d;" parent="1" source="UrcYGBR2MilL74NsPiot-146" target="UrcYGBR2MilL74NsPiot-145" edge="1">
          <mxGeometry relative="1" as="geometry" />
        </mxCell>
        <mxCell id="UrcYGBR2MilL74NsPiot-146" value="Urzica" style="whiteSpace=wrap;html=1;fillColor=#cce5ff;strokeColor=#36393d;" parent="1" vertex="1">
          <mxGeometry x="1120" y="3110" width="120" height="60" as="geometry" />
        </mxCell>
        <mxCell id="UrcYGBR2MilL74NsPiot-155" style="edgeStyle=orthogonalEdgeStyle;rounded=0;orthogonalLoop=1;jettySize=auto;html=1;fillColor=#cce5ff;strokeColor=#36393d;" parent="1" source="UrcYGBR2MilL74NsPiot-152" target="UrcYGBR2MilL74NsPiot-154" edge="1">
          <mxGeometry relative="1" as="geometry" />
        </mxCell>
        <mxCell id="UrcYGBR2MilL74NsPiot-152" value="Russian 360" style="whiteSpace=wrap;html=1;fillColor=#cce5ff;strokeColor=#36393d;" parent="1" vertex="1">
          <mxGeometry x="140" y="3220" width="120" height="60" as="geometry" />
        </mxCell>
        <mxCell id="UrcYGBR2MilL74NsPiot-157" style="edgeStyle=orthogonalEdgeStyle;rounded=0;orthogonalLoop=1;jettySize=auto;html=1;fillColor=#cce5ff;strokeColor=#36393d;" parent="1" source="UrcYGBR2MilL74NsPiot-154" target="UrcYGBR2MilL74NsPiot-156" edge="1">
          <mxGeometry relative="1" as="geometry" />
        </mxCell>
        <mxCell id="UrcYGBR2MilL74NsPiot-154" value="Russian 720" style="whiteSpace=wrap;html=1;fillColor=#cce5ff;strokeColor=#36393d;" parent="1" vertex="1">
          <mxGeometry x="540" y="3220" width="120" height="60" as="geometry" />
        </mxCell>
        <mxCell id="UrcYGBR2MilL74NsPiot-159" style="edgeStyle=orthogonalEdgeStyle;rounded=0;orthogonalLoop=1;jettySize=auto;html=1;entryX=0;entryY=0.5;entryDx=0;entryDy=0;fillColor=#cce5ff;strokeColor=#36393d;" parent="1" source="UrcYGBR2MilL74NsPiot-156" target="UrcYGBR2MilL74NsPiot-158" edge="1">
          <mxGeometry relative="1" as="geometry" />
        </mxCell>
        <mxCell id="UrcYGBR2MilL74NsPiot-156" value="Russian 1080" style="whiteSpace=wrap;html=1;fillColor=#cce5ff;strokeColor=#36393d;" parent="1" vertex="1">
          <mxGeometry x="1120" y="3220" width="120" height="60" as="geometry" />
        </mxCell>
        <mxCell id="UrcYGBR2MilL74NsPiot-161" value="" style="edgeStyle=orthogonalEdgeStyle;rounded=0;orthogonalLoop=1;jettySize=auto;html=1;fillColor=#cce5ff;strokeColor=#36393d;" parent="1" source="UrcYGBR2MilL74NsPiot-158" target="UrcYGBR2MilL74NsPiot-160" edge="1">
          <mxGeometry relative="1" as="geometry" />
        </mxCell>
        <mxCell id="UrcYGBR2MilL74NsPiot-158" value="Roth" style="whiteSpace=wrap;html=1;fillColor=#cce5ff;strokeColor=#36393d;" parent="1" vertex="1">
          <mxGeometry x="1360" y="3220" width="120" height="60" as="geometry" />
        </mxCell>
        <mxCell id="UrcYGBR2MilL74NsPiot-160" value="Wu Guonian" style="whiteSpace=wrap;html=1;fillColor=#cce5ff;strokeColor=#36393d;" parent="1" vertex="1">
          <mxGeometry x="1530" y="3220" width="120" height="60" as="geometry" />
        </mxCell>
        <mxCell id="UrcYGBR2MilL74NsPiot-165" style="edgeStyle=orthogonalEdgeStyle;rounded=0;orthogonalLoop=1;jettySize=auto;html=1;entryX=0;entryY=0.5;entryDx=0;entryDy=0;fillColor=#cce5ff;strokeColor=#36393d;" parent="1" source="UrcYGBR2MilL74NsPiot-162" target="UrcYGBR2MilL74NsPiot-164" edge="1">
          <mxGeometry relative="1" as="geometry" />
        </mxCell>
        <mxCell id="UrcYGBR2MilL74NsPiot-162" value="1/2 Side Travel" style="whiteSpace=wrap;html=1;fillColor=#cce5ff;strokeColor=#36393d;" parent="1" vertex="1">
          <mxGeometry x="-300" y="3310" width="120" height="60" as="geometry" />
        </mxCell>
        <mxCell id="UrcYGBR2MilL74NsPiot-164" value="3/3 Side Travel" style="whiteSpace=wrap;html=1;fillColor=#cce5ff;strokeColor=#36393d;" parent="1" vertex="1">
          <mxGeometry x="140" y="3310" width="120" height="60" as="geometry" />
        </mxCell>
        <mxCell id="UrcYGBR2MilL74NsPiot-169" style="edgeStyle=orthogonalEdgeStyle;rounded=0;orthogonalLoop=1;jettySize=auto;html=1;fillColor=#cce5ff;strokeColor=#36393d;" parent="1" source="UrcYGBR2MilL74NsPiot-166" target="UrcYGBR2MilL74NsPiot-168" edge="1">
          <mxGeometry relative="1" as="geometry" />
        </mxCell>
        <mxCell id="UrcYGBR2MilL74NsPiot-166" value="Flairs (All Positions)" style="whiteSpace=wrap;html=1;fillColor=#cce5ff;strokeColor=#36393d;" parent="1" vertex="1">
          <mxGeometry x="-140" y="2910" width="120" height="60" as="geometry" />
        </mxCell>
        <mxCell id="UrcYGBR2MilL74NsPiot-171" style="edgeStyle=orthogonalEdgeStyle;rounded=0;orthogonalLoop=1;jettySize=auto;html=1;fillColor=#cce5ff;strokeColor=#36393d;" parent="1" source="UrcYGBR2MilL74NsPiot-168" target="UrcYGBR2MilL74NsPiot-170" edge="1">
          <mxGeometry relative="1" as="geometry" />
        </mxCell>
        <mxCell id="UrcYGBR2MilL74NsPiot-168" value="Flair 1/4 Spindle" style="whiteSpace=wrap;html=1;fillColor=#cce5ff;strokeColor=#36393d;" parent="1" vertex="1">
          <mxGeometry x="140" y="2910" width="120" height="60" as="geometry" />
        </mxCell>
        <mxCell id="UrcYGBR2MilL74NsPiot-173" style="edgeStyle=orthogonalEdgeStyle;rounded=0;orthogonalLoop=1;jettySize=auto;html=1;fillColor=#cce5ff;strokeColor=#36393d;" parent="1" source="UrcYGBR2MilL74NsPiot-170" target="UrcYGBR2MilL74NsPiot-172" edge="1">
          <mxGeometry relative="1" as="geometry" />
        </mxCell>
        <mxCell id="UrcYGBR2MilL74NsPiot-170" value="Flair 1/2 Spindle" style="whiteSpace=wrap;html=1;fillColor=#cce5ff;strokeColor=#36393d;" parent="1" vertex="1">
          <mxGeometry x="620" y="2910" width="120" height="60" as="geometry" />
        </mxCell>
        <mxCell id="UrcYGBR2MilL74NsPiot-172" value="Flair 1/1 Spindle" style="whiteSpace=wrap;html=1;fillColor=#cce5ff;strokeColor=#36393d;" parent="1" vertex="1">
          <mxGeometry x="1360" y="2910" width="120" height="60" as="geometry" />
        </mxCell>
      </root>
    </mxGraphModel>
  </diagram>
</mxfile>
